<svg aria-hidden="true" style="position: absolute; width: 0; height: 0; overflow: hidden;" version="1.1" xmlns="http://www.w3.org/2000/svg" xmlns:xlink="http://www.w3.org/1999/xlink">
<defs>
<symbol id="icon-instagram" viewBox="0 0 32 32">
<path fill="#000" style="fill: var(--color1, #000)" d="M31.452 5.724c-0.291-2.729-2.447-4.885-5.176-5.176-6.844-0.73-13.709-0.73-20.553 0-2.729 0.291-4.885 2.447-5.176 5.176-0.73 6.844-0.73 13.709 0 20.553 0.291 2.729 2.447 4.885 5.176 5.176 6.844 0.73 13.709 0.73 20.553 0 2.729-0.291 4.884-2.447 5.176-5.176 0.73-6.844 0.73-13.708 0-20.553z"></path>
<path fill="#000" style="fill: var(--color1, #000)" d="M29.712 6.881c-0.258-2.422-2.171-4.334-4.593-4.593-6.073-0.648-12.165-0.648-18.238 0-2.422 0.259-4.334 2.171-4.593 4.593-0.648 6.073-0.648 12.165 0 18.238 0.259 2.422 2.171 4.335 4.593 4.593 6.073 0.648 12.165 0.648 18.238 0 2.422-0.258 4.335-2.171 4.593-4.593 0.648-6.073 0.648-12.164 0-18.238z"></path>
<path fill="#000" style="fill: var(--color1, #000)" d="M0.48 25.613c0.022 0.221 0.045 0.442 0.068 0.664 0.291 2.729 2.447 4.884 5.176 5.176 6.844 0.73 13.709 0.73 20.552 0 2.729-0.291 4.885-2.447 5.176-5.176 0.024-0.221 0.046-0.442 0.069-0.664h-31.041z"></path>
<path fill="#000" style="fill: var(--color1, #000)" d="M31.452 26.276c0.393-3.678 0.574-7.361 0.544-11.044l-7.314-7.314c-0.914-1.043-2.249-1.694-3.817-1.751-3.225-0.116-6.461-0.11-9.687 0-2.679 0.092-4.553 1.893-5.033 4.54-0.085 0.467-0.136 0.941-0.202 1.411v7.759c0.037 0.252 0.091 0.502 0.108 0.755 0.107 1.61 0.769 2.989 1.828 3.922l7.443 7.443c3.653 0.026 7.306-0.156 10.954-0.545 2.729-0.291 4.884-2.447 5.176-5.176z"></path>
<path fill="#000" style="fill: var(--color1, #000)" d="M31.452 26.276c-0.291 2.729-2.447 4.885-5.176 5.176-3.647 0.389-7.301 0.571-10.953 0.545l-7.432-7.432c0.862 0.754 1.985 1.213 3.288 1.262 3.225 0.121 6.461 0.118 9.686 0.002 2.917-0.106 5.028-2.264 5.119-5.181 0.097-3.097 0.097-6.202 0-9.3-0.042-1.346-0.514-2.53-1.297-3.426l7.31 7.31c0.029 3.682-0.152 7.366-0.545 11.044z"></path>
<path fill="#000" style="fill: var(--color1, #000)" d="M19.776 12.535c-0.937-1.020-2.282-1.66-3.776-1.66-2.831 0-5.125 2.295-5.125 5.126 0 1.494 0.64 2.839 1.66 3.776l11.859 11.859c0.628-0.055 1.255-0.115 1.883-0.182 2.729-0.291 4.885-2.447 5.176-5.176 0.067-0.627 0.128-1.255 0.182-1.883l-11.859-11.859z"></path>
<path fill="#000" style="fill: var(--color1, #000)" d="M31.938 19.447l-9.544-9.544c-0.223-0.292-0.573-0.482-0.969-0.482-0.673 0-1.22 0.546-1.22 1.22 0 0.396 0.19 0.747 0.482 0.969l11.080 11.080c0.075-1.081 0.132-2.162 0.171-3.243z"></path>
<path fill="#000" style="fill: var(--color1, #000)" d="M5.943 12.119c0.067-0.471 0.117-0.944 0.202-1.411 0.48-2.647 2.354-4.447 5.033-4.54 3.226-0.111 6.461-0.117 9.687-0 2.916 0.105 5.028 2.264 5.119 5.181 0.097 3.097 0.097 6.202 0 9.3-0.091 2.917-2.202 5.076-5.119 5.181-3.225 0.116-6.462 0.119-9.687-0.002-2.916-0.11-4.933-2.274-5.128-5.195-0.017-0.253-0.071-0.503-0.108-0.755 0-2.586 0-5.173 0-7.759zM16.003 24.101c1.476 0 2.954 0.044 4.428-0.010 2.311-0.086 3.733-1.465 3.787-3.774 0.067-2.877 0.067-5.758 0-8.636-0.054-2.309-1.477-3.72-3.787-3.769-2.932-0.062-5.868-0.062-8.8 0-2.293 0.048-3.719 1.431-3.781 3.714-0.079 2.914-0.079 5.832 0 8.746 0.062 2.283 1.488 3.634 3.781 3.719 1.456 0.054 2.915 0.010 4.372 0.010z"></path>
<path fill="#fff" style="fill: var(--color2, #fff)" d="M5.943 12.119c0.067-0.471 0.117-0.944 0.202-1.411 0.48-2.647 2.354-4.447 5.033-4.54 3.226-0.111 6.461-0.117 9.687-0 2.916 0.105 5.028 2.264 5.119 5.181 0.097 3.097 0.097 6.202 0 9.3-0.091 2.917-2.202 5.076-5.119 5.181-3.225 0.116-6.462 0.119-9.687-0.002-2.916-0.11-4.933-2.274-5.128-5.195-0.017-0.253-0.071-0.503-0.108-0.755 0-2.586 0-5.173 0-7.759zM16.003 24.101c1.476 0 2.954 0.044 4.428-0.010 2.311-0.086 3.733-1.465 3.787-3.774 0.067-2.877 0.067-5.758 0-8.636-0.054-2.309-1.477-3.72-3.787-3.769-2.932-0.062-5.868-0.062-8.8 0-2.293 0.048-3.719 1.431-3.781 3.714-0.079 2.914-0.079 5.832 0 8.746 0.062 2.283 1.488 3.634 3.781 3.719 1.456 0.054 2.915 0.010 4.372 0.010z"></path>
<path fill="#fff" style="fill: var(--color2, #fff)" d="M16 10.875c-2.831 0-5.125 2.295-5.125 5.125s2.295 5.126 5.125 5.126c2.831 0 5.126-2.295 5.126-5.126s-2.295-5.125-5.126-5.125zM16 19.361c-1.856 0-3.361-1.505-3.361-3.361s1.505-3.361 3.361-3.361c1.856 0 3.361 1.505 3.361 3.361s-1.505 3.361-3.361 3.361z"></path>
<path fill="#fff" style="fill: var(--color2, #fff)" d="M22.644 10.641c0 0.673-0.546 1.219-1.219 1.219s-1.22-0.546-1.22-1.219c0-0.674 0.546-1.22 1.22-1.22s1.219 0.546 1.219 1.22z"></path>
</symbol>
<symbol id="icon-phone" viewBox="0 0 32 32">
<path fill="#ff6b09" style="fill: var(--color3, #ff6b09)" d="M4.657 0.003c-0.515 0.025-1.021 0.253-1.392 0.678l-2.595 2.969c0.004-0.009-0.010-0.008-0.084 0.101-0.039 0.056-0.070 0.118-0.090 0.184-1.056 3.502-0.348 7.354 1.376 11.018s4.475 7.17 7.633 10.047c3.158 2.877 6.721 5.128 10.119 6.244s6.692 1.102 9.133-0.742c0.027-0.020 0.052-0.043 0.075-0.068 0.064-0.067 0.066-0.075 0.056-0.065l0.010-0.013 2.582-2.956c0.742-0.849 0.682-2.184-0.134-2.956l-6.126-5.799c-0.816-0.772-2.098-0.711-2.84 0.138l-2.772 3.173c-2.25-0.678-4.173-1.828-6.023-3.58s-3.132-3.637-3.993-5.905l2.771-3.173c0.742-0.849 0.683-2.184-0.133-2.956l-6.126-5.8c-0.408-0.386-0.933-0.564-1.448-0.539l-0.001 0zM4.715 1.304c0.19-0.009 0.383 0.060 0.541 0.209l6.126 5.8c0.316 0.299 0.337 0.776 0.050 1.104l-3.063 3.504c-0.077 0.089-0.129 0.197-0.151 0.314s-0.013 0.239 0.027 0.351c0.93 2.641 2.429 4.807 4.493 6.761s4.275 3.304 6.889 4.018c0.111 0.030 0.228 0.028 0.339-0.005s0.21-0.099 0.287-0.188l3.064-3.505c0.287-0.328 0.744-0.35 1.060-0.051l6.127 5.8c0.316 0.299 0.336 0.775 0.049 1.103l-2.561 2.93c-2.003 1.497-4.826 1.581-7.986 0.542-3.173-1.043-6.617-3.202-9.666-5.98s-5.702-6.169-7.332-9.633c-1.614-3.429-2.199-6.895-1.312-9.95l2.502-2.862c0.143-0.164 0.33-0.252 0.52-0.261l0 0z"></path>
</symbol>
</defs>
</svg>
