<svg aria-hidden="true" style="position: absolute; width: 0; height: 0; overflow: hidden;" version="1.1" xmlns="http://www.w3.org/2000/svg" xmlns:xlink="http://www.w3.org/1999/xlink">
<defs>
<symbol id="icon-facebook" viewBox="0 0 31 32">
<path fill="#436eab" style="fill: var(--color1, #436eab)" d="M26.318 2.314h-21.551c-0.779 0-1.527 0.307-2.078 0.853s-0.861 1.287-0.861 2.060v21.363c0 0.773 0.31 1.514 0.861 2.060s1.299 0.853 2.078 0.853h8.403v-9.244h-3.857v-4.351h3.857v-3.316c0-3.772 2.265-5.856 5.735-5.856 1.662 0 3.399 0.294 3.399 0.294v3.702h-1.914c-1.886 0-2.475 1.16-2.475 2.351v2.825h4.211l-0.673 4.351h-3.538v9.244h8.403c0.779 0 1.527-0.307 2.078-0.853s0.861-1.287 0.861-2.060v-21.363c0-0.773-0.31-1.514-0.861-2.060s-1.299-0.853-2.078-0.853z"></path>
</symbol>
<symbol id="icon-Arrow-2" viewBox="0 0 54 32">
<path  d="M2 14c-1.105 0-2 0.895-2 2s0.895 2 2 2v-4zM53.414 17.414c0.781-0.781 0.781-2.047 0-2.828l-12.728-12.728c-0.781-0.781-2.047-0.781-2.828 0s-0.781 2.047 0 2.828l11.314 11.314-11.314 11.314c-0.781 0.781-0.781 2.047 0 2.828s2.047 0.781 2.828 0l12.728-12.728zM2 18h50v-4h-50v4z"></path>
</symbol>
<symbol id="icon-Arrow-1" viewBox="0 0 54 32">
<path  d="M52 14c1.105 0 2 0.895 2 2s-0.895 2-2 2v-4zM0.586 17.414c-0.781-0.781-0.781-2.047 0-2.828l12.728-12.728c0.781-0.781 2.047-0.781 2.828 0s0.781 2.047 0 2.828l-11.314 11.314 11.314 11.314c0.781 0.781 0.781 2.047 0 2.828s-2.047 0.781-2.828 0l-12.728-12.728zM52 18h-50v-4h50v4z"></path>
</symbol>
</defs>
</svg>
