<svg aria-hidden="true" style="position: absolute; width: 0; height: 0; overflow: hidden;" version="1.1" xmlns="http://www.w3.org/2000/svg" xmlns:xlink="http://www.w3.org/1999/xlink">
<defs>
<symbol id="icon-fire-fragment-lright" viewBox="0 0 21 32">
<path d="M5.772 31.817c-3.447-0.53-5.81-3.727-5.279-7.148 0.395-2.549 2.678-15.596 8.874-22.157 2.385-2.53 6.378-2.662 8.933-0.285 2.545 2.367 2.675 6.337 0.287 8.867-2.623 2.778-4.857 10.729-5.603 15.486-0.533 3.385-3.714 5.76-7.212 5.236z"></path>
</symbol>
<symbol id="icon-fire-fragment-left" viewBox="0 0 22 32">
<path d="M9.59 26.958c-1.235-4.764-4.305-12.621-7.251-15.187-2.682-2.334-2.949-6.381-0.599-9.040 2.345-2.665 6.419-2.937 9.107-0.595 6.955 6.053 10.588 19.087 11.247 21.636 0.882 3.425-1.197 6.91-4.645 7.792-3.524 0.88-6.981-1.239-7.86-4.607z"></path>
</symbol>
<symbol id="icon-fire" viewBox="0 0 27 32">
<path d="M28.325 21.831c-0.373-0.836-0.887-1.659-1.639-2.609-1.896-2.386-2.474-7.706-2.481-7.757-0.026-0.255-0.206-0.466-0.443-0.542-0.244-0.077-0.508-0.006-0.681 0.185-2.262 2.533-1.311 6.443-0.797 8.006 0.141 0.427 0.296 0.931 0.405 1.442 0.835 4.127-0.778 5.996-1.157 6.373-0.366 0.102-0.617 0.051-0.848-0.198-0.797-0.874-1.060-3.738-0.688-7.47 0.077-0.759 0.058-1.442-0.051-2.080-0.786-4.587-3.668-7.529-4.402-8.561-2.018-2.985-2.224-7.955-2.23-7.999-0.006-0.236-0.141-0.447-0.353-0.549-0.206-0.102-0.456-0.089-0.649 0.045-3.368 2.29-3.078 7.808-2.609 10.889 0.109 0.714 0.321 1.442 0.688 2.36 1.305 3.285-0.257 7.527-0.27 7.566s-0.026 0.070-0.032 0.108c-0.199 1.046-0.533 1.671-0.906 1.671-0.039 0-0.077-0.006-0.122-0.019-0.456-0.096-0.694-0.581-0.7-1.002-0.026-5.441-5.482-7.272-5.54-7.291-0.244-0.077-0.514-0.006-0.681 0.191-0.174 0.198-0.206 0.472-0.090 0.702 0.064 0.134 0.27 0.721 0.129 2.794-0.122 1.863-0.463 3.706-1.009 5.473-1.298 4.236-1.093 8.248-1.080 8.439 0.998 10.864 16.609 12.768 25.873 6.647 1.015-0.67 1.844-1.435 2.455-2.277 3.419-4.721 1.407-11.131-0.090-14.538zM4.579 32.21c0.019 0.351-0.251 0.651-0.604 0.67h-0.039c-0.341 0-0.623-0.262-0.643-0.6-0.058-0.931-0.045-1.907 0.026-2.966 0.026-0.351 0.334-0.612 0.688-0.593 0.353 0.026 0.623 0.332 0.598 0.683-0.071 1.008-0.084 1.927-0.026 2.807zM4.893 26.558c-0.039 0.325-0.315 0.561-0.636 0.561-0.026 0-0.051 0-0.084-0.006-0.347-0.045-0.598-0.357-0.559-0.708l0.308-2.462c0.045-0.344 0.36-0.593 0.72-0.555 0.353 0.045 0.604 0.364 0.559 0.714l-0.308 2.456z"></path>
</symbol>
</defs>
</svg>
